<svg xmlns="http://www.w3.org/2000/svg" viewBox="0 0 1000 1000" width="1000" height="1000" role="img" aria-label="Placeholder image for monsoon-fields"><defs><filter id="g"><feTurbulence type="fractalNoise" baseFrequency="0.9" numOctaves="3" stitchTiles="stitch"/><feColorMatrix type="saturate" values="0"/><feComponentTransfer><feFuncA type="linear" slope="0.10"/></feComponentTransfer></filter><linearGradient id="sky" x1="0" y1="0" x2="0" y2="1"><stop offset="0" stop-color="#dfeccd"/><stop offset="1" stop-color="#a9cf94"/></linearGradient></defs><rect width="1000" height="1000" fill="url(#sky)"/><circle cx="378" cy="264" r="70" fill="#dfeccd" opacity="0.85"/><path d="M0,1000 L0,293.5 Q62.5,293.5 125.0,311.1 Q187.5,311.1 250.0,347.7 Q312.5,347.7 375.0,340.9 Q437.5,340.9 500.0,319.2 Q562.5,319.2 625.0,295.9 Q687.5,295.9 750.0,313.9 Q812.5,313.9 875.0,335.8 Q937.5,335.8 1000.0,332.6 L1000,1000 Z" fill="#a9cf94" opacity="0.92"/><path d="M0,1000 L0,559.8 Q62.5,559.8 125.0,548.0 Q187.5,548.0 250.0,515.6 Q312.5,515.6 375.0,507.8 Q437.5,507.8 500.0,524.1 Q562.5,524.1 625.0,556.6 Q687.5,556.6 750.0,547.0 Q812.5,547.0 875.0,513.0 Q937.5,513.0 1000.0,504.2 L1000,1000 Z" fill="#6aa46b" opacity="0.92"/><path d="M0,1000 L0,717.6 Q62.5,717.6 125.0,721.0 Q187.5,721.0 250.0,753.3 Q312.5,753.3 375.0,753.0 Q437.5,753.0 500.0,737.1 Q562.5,737.1 625.0,705.6 Q687.5,705.6 750.0,717.7 Q812.5,717.7 875.0,744.1 Q937.5,744.1 1000.0,753.2 L1000,1000 Z" fill="#356b4f" opacity="0.92"/><path d="M0,1000 L0,966.0 Q62.5,966.0 125.0,957.6 Q187.5,957.6 250.0,925.5 Q312.5,925.5 375.0,913.9 Q437.5,913.9 500.0,925.7 Q562.5,925.7 625.0,969.9 Q687.5,969.9 750.0,964.2 Q812.5,964.2 875.0,917.0 Q937.5,917.0 1000.0,916.5 L1000,1000 Z" fill="#1e4437" opacity="1"/><rect width="1000" height="1000" filter="url(#g)" opacity="0.5"/><rect x="0.5" y="0.5" width="999" height="999" fill="none" stroke="#00000022"/><text x="990" y="990" text-anchor="end" font-family="Georgia,serif" font-size="28" fill="#00000055">sample image — replace</text></svg>